#!OML:ASF F:\VICON\USERDATA\INSTALL\rory3\rory3.ASF
:FULLY-SPECIFIED
:DEGREES
195
root 1.384222506920746 17.94868659385132 47.55254331269998 -3.00066013859177 -0.06746971470749583 -1.612913660126957
lfemur 7.3748105072660195 -3.0596920665674365 -20.766479198863006
ltibia 47.079430587870505
lfoot -17.64660530041285 -1.231393928026846
ltoes -17.23100232835622
rfemur -14.595327123540004 2.1162090203723993 25.99700544475959
rtibia 17.877972690395
rfoot 0.2538500673815065 -7.339156830116179
rtoes 7.077012982314781
lowerback 10.063874139482957 -1.721615235105297 -0.3457252892874666
upperback -0.3603677335424305 -2.2613319882673695 2.3637621395995643
thorax -5.939802245571129 -1.1420733091712696 3.8600994510217115
lowerneck -16.646111014486216 -3.3057764055065477 -1.7022260926120176
upperneck 21.83443615170213 -4.421376419493148 0.7945944045957262
head 9.7370532432688 -2.094470815551147 -0.018537872518648274
lclavicle -2.7003079518450193e-15 -2.1517147062678927e-15
lhumerus -27.759184090003593 2.0315718092282165 81.87261781815366
lradius 25.87081162111824
lwrist 11.132384922395902
lhand -29.487605429649644 19.79099014902261
lfingers 7.125020000000001
lthumb -2.7314153789372853 50.10378350216125
rclavicle -2.700307951754018e-15 -2.1517147062053376e-15
rhumerus -29.58682899588421 -17.880629399050893 -76.40483282749632
rradius 25.970055925565337
rwrist 4.513378021133553
rhand -17.99195428886533 22.31738980567816
rfingers 7.125020000000001
rthumb 8.542759894235928 -6.8208988155461645
196
root 1.3954120405982622 17.96417207653841 47.670349606280524 -2.9280143960932095 0.04409738556615295 -1.6802877679951256
lfemur 6.934816146372018 -3.120259811657858 -20.685776008061776
ltibia 47.6536221196481
lfoot -17.315348238338796 -1.1297286318331448
ltoes -19.503888751142824
rfemur -14.097985677919823 2.0259660102632635 26.057128955226016
rtibia 17.298484870402508
rfoot -0.14059630924542166 -7.251057503873795
rtoes 5.564478854661416
lowerback 10.035888722724408 -1.707338140108014 -0.175932323492477
upperback -0.38433406436789347 -2.221078003390993 2.3923632610097494
thorax -5.955360370957456 -1.1504855212714267 3.798356389652766
lowerneck -16.625661916948708 -3.3025253283353355 -1.7192592581229431
upperneck 21.898658209422102 -4.402836478511434 0.7491903762549932
head 9.769773054874872 -2.0855065992014366 -0.03355241439753112
lclavicle -2.7003079518508865e-15 -2.1517147062718607e-15
lhumerus -28.044213742729777 2.1247262210828053 81.90994578139595
lradius 25.699592908302936
lwrist 11.193911334395892
lhand -29.604042990027995 20.006614786502556
lfingers 7.125020000000001
lthumb -2.734644932342717 50.514908890205696
rclavicle -2.7003079517486564e-15 -2.1517147062016844e-15
rhumerus -30.01013400461024 -18.119395607400524 -76.33712474307016
rradius 25.9185727476009
rwrist 4.313691790224393
rhand -18.002672445723743 22.435903541503777
rfingers 7.125020000000001
rthumb 8.482793826097602 -6.49011085426884
197
root 1.40799963224993 17.983118651851118 47.99171627811805 -2.8366604620798466 0.2225217086467553 -1.7078575663303026
lfemur 7.153832815657038 -3.277053202241503 -20.81835498730093
ltibia 47.960867234476716
lfoot -17.483010056084872 -1.17543620008674
ltoes -16.596711155504437
rfemur -13.4698175461218 1.9786478485109509 26.12380763509453
rtibia 16.93982223971431
rfoot -0.35714109071238465 -7.286471191646623
rtoes 3.9128555734075556
lowerback 9.991289459549227 -1.679525467307572 -0.0077124617927401
upperback -0.41019426251174596 -2.1069194017825303 2.4139790843876
thorax -5.940667367125952 -1.0676610323162747 3.8407227119121097
lowerneck -16.602416679871492 -3.2929099513479856 -1.720948238145799
upperneck 22.023937360145244 -4.3949933142616455 0.6704028983063179
head 9.828719366972573 -2.083324479466966 -0.05981366523544315
lclavicle -2.7003079518446115e-15 -2.1517147062675633e-15
lhumerus -28.30991656838951 2.3339174286273066 81.94107640418657
lradius 25.61803749515069
lwrist 11.467081775372227
lhand -29.61185091143886 20.146411122056364
lfingers 7.125020000000001
lthumb -2.7376831007087725 50.54297099137843
rclavicle -2.70030795175497e-15 -2.151714706205914e-15
rhumerus -30.417128758773682 -18.36322941338004 -76.40786203164697
rradius 25.922680491071606
rwrist 4.214516455390193
rhand -18.04288017316753 22.48053206830324
rfingers 7.125020000000001
rthumb 8.26588069445328 -6.449331423161663
198
root 1.4037035977378367 17.979383853360126 47.74803616071658 -2.992179594936337 0.10786318544647444 -1.4381265396791925
lfemur 7.246988073875462 -3.3352226816870085 -21.09829870519193
ltibia 48.38822618162895
lfoot -17.308465577634937 -1.1389564991583354
ltoes -20.1547422604446
rfemur -13.120807906083066 1.991070861071122 25.967866222070157
rtibia 17.123648057570612
rfoot -0.3446259446165838 -7.327546631866535
rtoes 3.7125882811373563
lowerback 9.963622979493685 -1.5782390088009652 -0.1491264416114979
upperback -0.4019391012405757 -2.031824284819879 2.379530651305597
thorax -5.957375542669922 -1.0613786733584358 3.7631398363164292
lowerneck -16.596182403842818 -3.2911832631264435 -1.718152933890118
upperneck 22.065742249542797 -4.401341978515349 0.6779565762063444
head 9.859103776917657 -2.087343653419654 -0.06548829873451076
lclavicle -2.7003079518465154e-15 -2.1517147062687352e-15
lhumerus -28.624058396846074 2.3921230056794274 81.84763384791721
lradius 25.50847837602191
lwrist 11.702206552800003
lhand -29.75368744768206 19.967402917947037
lfingers 7.125020000000001
lthumb -3.0024739573426222 50.169000714161164
rclavicle -2.70030795175586e-15 -2.1517147062064325e-15
rhumerus -30.731075767956003 -18.415534072204984 -76.5003415451353
rradius 25.894878877020027
rwrist 3.8769454145104216
rhand -18.024429545851337 22.589990754439253
rfingers 7.125020000000001
rthumb 8.263220273422053 -6.092741090122926
